<svg width="16" height="16" viewBox="0 0 16 16" fill="none" xmlns="http://www.w3.org/2000/svg">
<path d="M11.2996 4.01483C11.1347 3.99842 11 4.13431 11 4.3V4.7C11 4.86569 11.1351 4.99763 11.2989 5.02228C12.2606 5.16696 13 5.99858 13 7C13 8.103 12.103 9 11 9H5V7.22426C5 6.95699 4.67686 6.82314 4.48787 7.01213L2.21213 9.28787C2.09497 9.40503 2.09497 9.59497 2.21213 9.71213L4.48787 11.9879C4.67686 12.1769 5 12.043 5 11.7757V10H11C12.6545 10 14 8.6545 14 7C14 5.44659 12.8139 4.16557 11.2996 4.01483Z" fill="currentColor" stroke="currentColor" stroke-width="0.5" stroke-linejoin="round"/>
</svg>
